Coordinates
version=1
nRows=8
nColumns=36
inDegrees=yes

Units are S.I. units (second, meters, Newtons, ...)
If the header above contains a line with 'inDegrees', this indicates whether rotational values are in degrees (yes) or radians (no).

endheader
time	pelvis_tilt	pelvis_list	pelvis_rotation	pelvis_tx	pelvis_ty	pelvis_tz	hip_flexion_r	hip_adduction_r	hip_rotation_r	knee_angle_r	knee_angle_r_beta	ankle_angle_r	subtalar_angle_r	mtp_angle_r	hip_flexion_l	hip_adduction_l	hip_rotation_l	knee_angle_l	knee_angle_l_beta	ankle_angle_l	subtalar_angle_l	mtp_angle_l	lumbar_extension	lumbar_bending	lumbar_rotation	arm_flex_r	arm_add_r	arm_rot_r	elbow_flex_r	pro_sup_r	arm_flex_l	arm_add_l	arm_rot_l	elbow_flex_l	pro_sup_l
      1.79000000	    -14.38278897	      0.46444541	      0.05389004	     -0.31264956	      0.81748631	     -0.54999038	     62.64337936	      4.35042364	      4.20061227	     83.00669430	      1.44874012	     34.02749406	    -14.54738052	     -7.49799306	     64.51045523	     -5.52514389	      1.21792439	     80.04463660	      1.39704246	     30.92345584	     -7.03774861	     -7.49799306	    -22.68487764	      2.22394797	     -2.74745661	     33.69160772	    -18.51625665	     -1.57289851	     95.90613619	    113.34298542	     23.55042909	    -22.37506530	      1.19929158	     77.25853680	     97.34944013
      1.80000000	    -13.90653384	      0.58352374	      0.20380396	     -0.30811838	      0.81823807	     -0.55029093	     61.79971415	      4.35442304	      4.49837352	     83.19837295	      1.45208554	     34.54051443	    -14.51396259	     -7.49808058	     63.67747487	     -4.95609408	      1.49962674	     80.10842397	      1.39815576	     30.44571718	     -8.52012198	     -7.49808058	    -22.09750794	      2.20242268	     -3.36104682	     37.24437076	    -20.50171889	      0.68597926	     97.11582252	    112.86789849	     25.37771868	    -24.81092619	      0.66287130	     80.51751672	     97.13947972
      1.81000000	    -13.48978372	      0.66123418	      0.33951969	     -0.30333016	      0.81978288	     -0.55043411	     60.90806342	      4.37396696	      4.70933800	     83.18450155	      1.45184344	     34.71147641	    -14.78348834	     -7.49812205	     62.78667390	     -4.48121503	      1.78861526	     80.02236932	      1.39665382	     30.56980002	     -9.09292779	     -7.49812205	    -21.34491902	      2.14534994	     -3.41157741	     40.78266522	    -23.00278138	      2.36140922	     98.70854589	    112.73868941	     28.21651176	    -27.25932693	      1.08456420	     83.06553266	     97.17301429
      1.82000000	    -13.16394551	      0.77524636	      0.47302512	     -0.29829146	      0.82208574	     -0.55059016	     60.03739152	      4.29953609	      4.86629539	     83.04834832	      1.44946712	     34.84864164	    -14.98778462	     -7.49814381	     61.86288570	     -3.98857137	      2.03266284	     79.75495873	      1.39198662	     30.67947113	     -9.59598949	     -7.49814381	    -20.40899335	      2.03498669	     -3.47852292	     44.83306969	    -25.48371558	      4.06607498	    100.11627609	    112.74165346	     31.38699803	    -29.93060354	      1.56232440	     85.47000298	     97.31292514
      1.83000000	    -12.74957080	      0.89604916	      0.57872523	     -0.29301726	      0.82555334	     -0.55073272	     58.92031544	      4.21772691	      5.04404192	     82.67062314	      1.44287457	     34.94618621	    -15.16189401	     -7.49816590	     60.69920455	     -3.55508948	      2.20986998	     79.26742944	      1.38347763	     30.65907799	    -10.13485921	     -7.49816590	    -19.51071410	      1.91688018	     -3.62626412	     49.58815003	    -27.91547091	      6.26907240	    101.02300224	    112.70469290	     34.92266891	    -32.90264266	      2.21798510	     87.76439805	     97.41413632
      1.84000000	    -12.26590535	      0.99915350	      0.63728275	     -0.28752734	      0.83008336	     -0.55081914	     57.60347761	      4.14559625	      5.22478597	     82.09480108	      1.43282458	     35.01047355	    -15.28252790	     -7.49820357	     59.35414244	     -3.24618216	      2.28260347	     78.60431409	      1.37190409	     30.44314149	    -10.82030804	     -7.49820357	    -18.60861164	      1.86311965	     -3.92803751	     55.18869357	    -30.11520384	      9.20269733	    101.20540315	    112.47301428	     38.74761743	    -36.10401985	      2.86472234	     89.83156834	     97.20715011
      1.85000000	    -11.93344032	      1.13983618	      0.59113352	     -0.28174466	      0.83555439	     -0.55051614	     56.32486993	      4.07674705	      5.40521455	     81.26096153	      1.41827133	     34.98152604	    -15.30606193	     -7.49823702	     57.98154321	     -3.03897068	      2.29688521	     77.68287408	      1.35582193	     30.25556204	    -11.25478571	     -7.49823702	    -17.55833379	      1.71381206	     -4.04325469	     61.07505153	    -32.37660538	     12.40845026	    101.43676470	    112.36121258	     43.01344250	    -39.33030148	      3.85119402	     91.84858284	     96.88529320
      1.86000000	    -11.61819158	      1.29655651	      0.54743351	     -0.27572428	      0.84219838	     -0.55030127	     54.92543982	      3.93114755	      5.58591983	     80.19020736	      1.39958315	     34.89344486	    -15.22423481	     -7.49877253	     56.48040826	     -2.82904474	      2.24719600	     76.48046035	      1.33483585	     29.79529669	    -11.87714728	     -7.49877253	    -16.48820989	      1.63571111	     -4.32923933	     67.63587292	    -34.18940562	     16.31753045	    101.21658582	    110.90250390	     47.43254849	    -42.82473557	      5.16514507	     94.71723893	     87.90468260
